<?xml version="1.0" standalone="no"?>
<!DOCTYPE svg PUBLIC "-//W3C//DTD SVG 20010904//EN"
 "http://www.w3.org/TR/2001/REC-SVG-20010904/DTD/svg10.dtd">
<svg version="1.0" xmlns="http://www.w3.org/2000/svg"
 width="225.000000pt" height="225.000000pt" viewBox="0 0 225.000000 225.000000"
 preserveAspectRatio="xMidYMid meet">

<g transform="translate(0.000000,225.000000) scale(0.100000,-0.100000)"
fill="#000000" stroke="none">
<path d="M1 2103 c0 -134 2 -144 13 -108 38 121 120 203 239 240 39 13 32 14
-105 14 l-148 1 1 -147z"/>
<path d="M1995 2236 c121 -38 203 -120 240 -239 13 -39 14 -32 14 106 l1 147
-147 -1 c-134 0 -144 -2 -108 -13z"/>
<path d="M792 1694 c-68 -18 -85 -28 -139 -77 -101 -93 -116 -165 -111 -538 4
-313 9 -334 87 -421 95 -106 165 -121 542 -116 313 4 334 9 421 87 105 94 121
169 116 548 -4 306 -9 328 -87 415 -53 60 -118 94 -202 108 -99 16 -562 12
-627 -6z m703 -124 c38 -20 55 -37 75 -75 l25 -49 0 -321 0 -321 -25 -49 c-20
-38 -37 -55 -75 -75 l-49 -25 -321 0 -321 0 -49 25 c-38 20 -55 37 -75 75 -25
49 -25 50 -28 353 -3 337 2 374 59 432 55 54 91 59 429 57 l306 -2 49 -25z"/>
<path d="M1387 1482 c-22 -25 -21 -75 1 -95 25 -22 75 -21 95 1 22 25 21 75
-1 95 -25 22 -75 21 -95 -1z"/>
<path d="M1063 1420 c-227 -47 -315 -325 -158 -498 115 -128 325 -128 440 0
55 61 78 120 78 203 0 83 -23 142 -78 203 -66 74 -183 112 -282 92z m140 -114
c39 -17 92 -71 106 -109 25 -66 8 -150 -43 -205 -49 -55 -144 -77 -213 -51
-38 14 -92 67 -109 106 -17 38 -18 111 -3 150 14 37 66 92 104 109 39 17 117
18 158 0z"/>
<path d="M1 148 l-1 -148 148 1 c137 0 144 1 105 14 -119 37 -201 119 -239
240 -11 36 -13 26 -13 -107z"/>
<path d="M2240 273 c0 -29 -45 -117 -80 -157 -37 -42 -102 -82 -163 -101 -39
-13 -32 -14 106 -14 l147 -1 0 145 c0 80 -2 145 -5 145 -3 0 -5 -8 -5 -17z"/>
</g>
</svg>
