<?xml version="1.0" standalone="no"?>
<!DOCTYPE svg PUBLIC "-//W3C//DTD SVG 20010904//EN"
 "http://www.w3.org/TR/2001/REC-SVG-20010904/DTD/svg10.dtd">
<svg version="1.0" xmlns="http://www.w3.org/2000/svg"
 width="225.000000pt" height="225.000000pt" viewBox="0 0 225.000000 225.000000"
 preserveAspectRatio="xMidYMid meet">

<g transform="translate(0.000000,225.000000) scale(0.100000,-0.100000)"
fill="#000000" stroke="none">
<path d="M990 2239 c-256 -31 -498 -154 -678 -344 -374 -393 -410 -1005 -85
-1440 401 -537 1183 -604 1668 -143 299 284 418 696 315 1098 -90 354 -378
663 -725 778 -145 49 -348 70 -495 51z m30 -694 c96 -129 178 -233 181 -232 3
1 102 106 220 234 l214 232 58 1 c32 0 57 -4 55 -9 -1 -5 -104 -118 -228 -252
-124 -134 -233 -253 -243 -266 l-19 -23 282 -378 282 -377 -198 -3 c-109 -1
-204 0 -210 2 -7 3 -96 117 -199 255 -103 138 -188 251 -190 251 -2 0 -110
-115 -240 -255 l-237 -255 -61 0 -61 0 25 28 c14 15 136 147 272 293 l246 267
-246 328 c-136 181 -257 344 -271 362 l-24 32 208 0 209 0 175 -235z"/>
<path d="M622 1680 c2 -5 187 -257 413 -559 l410 -548 97 -4 c63 -3 94 -1 89
6 -4 6 -193 259 -420 563 l-413 552 -90 0 c-55 0 -88 -4 -86 -10z"/>
</g>
</svg>
